PathFileType	4	(X/Y/Z)	subject01_walk1.trc
DataRate	CameraRate	NumFrames	NumMarkers	Units	OrigDataRate	OrigDataStartFrame	OrigNumFrames
60.00	60.00	       4	41	mm	60.00	189	       251
Frame#	Time	R.ASIS			L.ASIS			V.Sacral			R.Thigh.Upper			R.Thigh.Front			R.Thigh.Rear			L.Thigh.Upper			L.Thigh.Front			L.Thigh.Rear			R.Shank.Upper			R.Shank.Front			R.Shank.Rear			L.Shank.Upper			L.Shank.Front			L.Shank.Rear			R.Heel			R.Midfoot.Sup			R.Midfoot.Lat			R.Toe.Tip			L.Heel			L.Midfoot.Sup			L.Midfoot.Lat			L.Toe.Tip			Sternum			R.Acromium			L.Acromium			R.Bicep			L.Bicep			R.Elbow			L.Elbow			R.Wrist.Med			R.Wrist.Lat			L.Wrist.Med			L.Wrist.Lat			R.Toe.Lat			R.Toe.Med			L.Toe.Lat			L.Toe.Med			R.Temple			L.Temple			Top.Head			
		X1	Y1	Z1	X2	Y2	Z2	X3	Y3	Z3	X4	Y4	Z4	X5	Y5	Z5	X6	Y6	Z6	X7	Y7	Z7	X8	Y8	Z8	X9	Y9	Z9	X10	Y10	Z10	X11	Y11	Z11	X12	Y12	Z12	X13	Y13	Z13	X14	Y14	Z14	X15	Y15	Z15	X16	Y16	Z16	X17	Y17	Z17	X18	Y18	Z18	X19	Y19	Z19	X20	Y20	Z20	X21	Y21	Z21	X22	Y22	Z22	X23	Y23	Z23	X24	Y24	Z24	X25	Y25	Z25	X26	Y26	Z26	X27	Y27	Z27	X28	Y28	Z28	X29	Y29	Z29	X30	Y30	Z30	X31	Y31	Z31	X32	Y32	Z32	X33	Y33	Z33	X34	Y34	Z34	X35	Y35	Z35	X36	Y36	Z36	X37	Y37	Z37	X38	Y38	Z38	X39	Y39	Z39	X40	Y40	Z40	X41	Y41	Z41	

189      1.88000000	    604.54208022	   1043.66797593	    127.76349431	    604.35823712	   1029.57372312	   -133.40493527	    407.63867165	   1036.14881345	     14.64793636	    661.90941249	    739.11651559	    177.01133679	    733.65291534	    701.69341725	     77.73219074	    701.72732319	    624.58373713	    170.58527444	    468.81684725	    748.95590378	   -177.29308113	    551.01976932	    686.70560555	   -121.47860775	    435.57757577	    645.86710107	   -158.44017699	    703.11264697	    445.28324219	    159.94761852	    790.42422519	    437.93485823	    108.24430581	    745.72169482	    368.72703331	    169.59010840	    341.92058460	    445.32642205	   -150.92244878	    370.67820149	    381.37453456	    -99.08529087	    306.09143325	    413.43916686	   -156.15227230	    786.27223632	     57.78006709	     92.04660706	    918.39529474	    114.30537584	     64.66116778	    913.97521266	     94.27499332	    170.46775029	   1059.33746313	    138.38063570	    110.04754386	    114.52797193	    111.42234534	    -53.52283134	    282.07753186	     82.53545511	    -24.95466775	    262.76183920	     67.11631052	   -119.21523743	    380.49569943	     44.04778392	    -46.90733217	    633.78305361	   1345.75262541	      4.14604351	    514.57840925	   1430.47307222	    205.95277223	    582.32198799	   1460.82411331	   -205.83423606	    493.27468090	   1233.18092630	    247.98720174	    626.93319715	   1227.85946091	   -234.59941810	    432.88666189	   1136.58977429	    268.32893357	    598.08517713	   1124.06617808	   -278.66360533	    552.37491704	    894.61726636	    277.01314448	    504.79252094	    883.21292020	    319.94503201	    778.74211058	    969.25025380	   -188.30821779	    753.75700670	    933.17984919	   -249.59055338	   1001.90543715	     99.02949769	    187.05928594	   1010.31173088	    115.44924889	     78.39962495	    316.26972913	     37.00217641	   -124.71422083	    337.65803621	     46.75869295	    -24.31344346	    683.56055488	   1587.46196199	     93.39913067	    700.90299988	   1595.94609224	    -43.90182241	    652.95596702	   1762.26958234	     33.52517036
190      1.89000000	    607.48016681	   1042.87200686	    128.67656913	    606.15559982	   1029.01216714	   -132.18072924	    409.80430247	   1035.41028352	     16.54392479	    665.85333491	    739.72653065	    177.44110524	    738.26917391	    702.91942170	     78.85953106	    705.44255145	    624.50077452	    169.84465268	    469.90654821	    748.72950639	   -176.71253554	    552.01273128	    686.11198308	   -121.08165715	    436.58687213	    645.56351023	   -157.98790036	    706.08022600	    445.49273143	    158.70938653	    791.87347767	    436.11227190	    106.72422476	    746.48375993	    368.19122660	    167.55501080	    341.01367813	    446.49070022	   -150.89674012	    368.27642610	    380.91654670	    -99.94591401	    304.80778914	    414.86686055	   -156.48105666	    777.63631295	     58.63710928	     90.94907692	    911.65623729	    108.87080467	     63.06026952	    906.61844418	     89.78503437	    168.82368948	   1053.49418974	    127.48029884	    107.80425806	    106.27197436	    117.13203785	    -54.40096084	    272.68083449	     83.59189599	    -25.55468851	    253.31715928	     67.68912868	   -120.18828508	    368.59374566	     43.85123747	    -46.93699460	    635.06819061	   1345.79124656	      6.03718175	    515.57099086	   1429.28985322	    208.82689973	    582.93528646	   1461.25428399	   -203.44643905	    494.53263399	   1231.68864914	    249.98179486	    625.91750501	   1227.84549203	   -232.65337225	    434.90270964	   1134.93004835	    269.86928662	    597.55417568	   1124.67138153	   -276.67392906	    555.37801502	    893.22163647	    278.21648669	    507.65800630	    881.83430909	    320.87320456	    775.88244891	    965.25498564	   -188.25821484	    749.65187130	    930.06380910	   -250.08223768	    995.64983615	     90.59210256	    185.33585391	   1003.23872619	    105.78247326	     76.76209129	    304.52223312	     36.67911222	   -124.61881292	    327.06764899	     46.20752982	    -24.35619909	    682.98135158	   1587.50153107	     96.01880029	    700.40207727	   1596.02928824	    -41.54936843	    652.01659817	   1762.14180371	     35.49632124
191      1.90000000	    610.03516000	   1042.57324000	    129.64340000	    607.80206000	   1028.72498000	   -130.71559000	    412.04169000	   1034.99036000	     18.41548000	    669.16840000	    740.61969000	    178.34550000	    742.26971000	    704.17328000	     80.30841000	    707.79071000	    624.13812000	    169.41351000	    471.53708000	    748.53265000	   -176.04604000	    553.88635000	    685.66632000	   -120.74895000	    438.11472000	    645.13721000	   -157.48712000	    709.48065000	    446.07312000	    157.89854000	    792.59503000	    434.63446000	    105.64602000	    747.85876000	    368.69659000	    165.99821000	    341.20230000	    447.38290000	   -151.01653000	    366.51389000	    380.44019000	   -100.62478000	    304.46347000	    416.26398000	   -156.82100000	    769.02020000	     59.63794000	     90.26121000	    904.56079000	    103.87423000	     61.80857000	    899.11707000	     85.70890000	    167.55299000	   1047.26318000	    117.38140000	    105.99777000	     99.00433000	    123.33566000	    -55.32401000	    264.05856000	     84.80372000	    -26.07131000	    244.74504000	     68.46319000	   -121.17912000	    357.31729000	     43.71735000	    -46.88848000	    635.82886000	   1345.73108000	      8.38497000	    517.08752000	   1428.33545000	    211.60574000	    583.38544000	   1461.82324000	   -200.79243000	    495.75867000	   1230.26929000	    252.05280000	    624.81714000	   1228.25256000	   -230.31384000	    437.08359000	   1133.56262000	    271.44321000	    597.56708000	   1125.28552000	   -274.60184000	    558.83423000	    892.37671000	    279.34903000	    510.44702000	    880.62952000	    322.22226000	    772.43353000	    960.94531000	   -188.35240000	    745.40802000	    927.11359000	   -251.04771000	    989.34619000	     82.77299000	    183.89014000	    995.90729000	     96.99548000	     75.46587000	    293.27945000	     36.37180000	   -124.43866000	    317.03229000	     45.64081000	    -24.28938000	    683.20856000	   1587.86633000	     98.55325000	    700.04620000	   1596.53613000	    -39.51795000	    651.49518000	   1762.11389000	     37.42684000
192      1.91000000	    612.35945003	   1043.10622942	    130.69894967	    609.01801934	   1028.89965380	   -129.56114609	    414.35395019	   1034.84489341	     20.28993292	    671.32570803	    740.66572621	    179.58530293	    746.29601525	    706.15580479	     81.44058437	    709.92893772	    624.49525282	    169.52993989	    473.75959717	    748.32021031	   -175.30269809	    556.15888496	    685.00904872	   -120.71547810	    440.34160604	    644.84464251	   -157.11926380	    712.51230262	    447.06811715	    157.51754051	    795.99492515	    434.42824752	    103.96575711	    749.08290998	    369.02540604	    165.51373527	    342.18857225	    447.92219734	   -151.71808601	    365.44967012	    380.23038644	   -100.81869707	    305.07767255	    417.66172168	   -157.24017277	    760.18349311	     60.74760113	     89.90541330	    896.99323265	     99.26970751	     60.82705167	    891.27548919	     81.97426225	    166.60442209	   1040.50298976	    107.91402464	    104.54717960	     92.44128640	    130.29415680	    -56.34622958	    255.81449189	     86.25776137	    -26.57460215	    236.52114157	     69.45265837	   -122.11403181	    346.25715234	     43.62821333	    -46.75890047	    637.51843524	   1346.23854335	     11.11271050	    517.92762313	   1427.84087382	    214.26799883	    583.93449116	   1462.19039626	   -197.64620631	    497.83324366	   1229.11218772	    254.07626641	    625.68033844	   1228.96555713	   -227.89439380	    439.51617287	   1132.39625755	    273.10944089	    596.39825498	   1125.73058908	   -272.04649223	    562.15573606	    892.33588252	    280.68483483	    512.95568882	    879.52100831	    323.49598625	    768.42817827	    956.69610484	   -189.25539068	    740.52795419	    924.63760610	   -252.10879199	    981.48492263	     75.94375934	    182.90574940	    988.13622049	     88.94716852	     74.41473136	    282.15062353	     36.12137905	   -124.18227883	    307.12882810	     45.11249236	    -24.13700704	    684.85669073	   1588.76469777	    101.01223537	    700.82892938	   1597.30829524	    -37.07612634	    651.59782070	   1762.85100420	     40.39385518
